<?xml version="1.0" ?><svg xmlns:inkscape="http://www.inkscape.org/namespaces/inkscape" xmlns:sodipodi="http://sodipodi.sourceforge.net/DTD/sodipodi-0.dtd" xmlns="http://www.w3.org/2000/svg" xmlns:svg="http://www.w3.org/2000/svg" width="32" height="32" viewBox="0 0 8.4666662 8.4666666" version="1.1" id="svg1066"><defs id="defs1063"/><g id="layer1"><path style="fill:#cccccc;fill-opacity:1;stroke-width:0.999996" d="m 5.8773128,3.6741793 c 0.038097,-0.014627 0.1450021,-0.014286 0.2376033,5.669e-4 0.1551443,0.025171 0.1707857,0.016497 0.1990809,-0.1105671 0.1148813,-0.51594 0.2291504,-0.5852634 0.2522639,-0.153041 0.014003,0.261862 0.016554,0.2659665 0.1975671,0.3202041 0.1008557,0.030217 0.2186738,0.054935 0.261811,0.054935 0.043143,0 0.078428,0.019275 0.078428,0.042859 0,0.061012 -0.1253355,0.1011335 -0.3159238,0.1011335 H 6.6240757 v 0.3061217 c 0,0.3213208 -0.07141,0.4519967 -0.2165647,0.3962965 C 6.355581,4.6127319 6.342729,4.5684729 6.364141,4.4831448 6.380865,4.4164748 6.365841,4.2647999 6.330863,4.1460975 L 6.2671351,3.9302699 h -0.229519 c -0.2100848,0 -0.2295189,-0.00975 -0.2295189,-0.1148643 0,-0.063172 0.031181,-0.1268151 0.069233,-0.1414248 z" id="path1734"/><path style="fill:#cccccc;fill-opacity:1;stroke-width:0.999997" d="m 4.7018927,1.9769792 c 0.024226,-0.00148 0.040947,0.02074 0.073963,0.065229 0.043677,0.058909 0.056395,0.1354351 0.037118,0.2237987 -0.06343,0.2908644 -0.087681,1.2402398 -0.047491,1.8556212 0.040192,0.6152072 0.044591,0.7982152 0.02975,1.24072 -0.00529,0.1580411 -0.021538,0.1902287 -0.095797,0.1902287 -0.05451,0 -0.1248309,-0.060384 -0.1806767,-0.1550216 C 4.4684431,5.3122711 4.353293,5.1969341 4.2630281,5.1412784 4.11406,5.0494294 4.0345702,4.990796 3.8798406,4.8593465 3.7782522,4.7730425 3.6484563,4.7147081 3.3921225,4.6401871 3.1740416,4.5767571 3.0786578,4.5725446 2.7840442,4.6128926 c -0.3357977,0.04598 -0.575599,0.014915 -0.5914296,-0.076419 -0.016283,-0.097946 -0.016415,-0.4669916 0,-0.4833514 0.010404,-0.010415 0.02083,-0.2558093 0.023471,-0.5453053 0.00375,-0.4227042 0.016948,-0.523936 0.066594,-0.5133731 0.2573954,0.054663 0.7017677,0.080402 0.9451414,0.054312 0.313405,-0.033569 0.3441857,-0.055589 0.8283288,-0.585152 0.099444,-0.1087711 0.230252,-0.2226341 0.2906658,-0.2530023 0.060414,-0.030395 0.1668024,-0.1006991 0.2363536,-0.1563864 0.062912,-0.050374 0.0945,-0.075752 0.1187229,-0.077238 z" id="path1612"/><path id="path356" style="fill:#000000;stroke-width:0.999997" d="m 4.3960839,1.6691488 c -0.04231,2.72e-4 -0.085766,0.017325 -0.151412,0.05271 C 4.045203,1.8293784 3.7073466,2.120676 3.3563541,2.4877035 L 3.0571475,2.8008626 2.6060123,2.7967285 C 2.2558906,2.7933985 2.1375272,2.7760008 2.0747786,2.7192139 1.9621785,2.6172824 1.8768302,2.6275991 1.7538679,2.758488 1.662289,2.8559458 1.6443546,2.9322299 1.6184757,3.328479 h 5.167e-4 C 1.6025674,3.580149 1.59103,3.9966876 1.593671,4.2540039 l 0.00465,0.4676717 0.1565796,0.1069702 C 1.9025696,4.929304 1.9365812,4.9334545 2.3584822,4.9066772 2.94331,4.8695542 3.1548687,4.9328432 3.5434228,5.2611776 3.703281,5.3962653 3.860286,5.5199991 3.8922387,5.5355794 3.9241807,5.5511654 4.0107199,5.6240884 4.084475,5.6978434 4.2038141,5.8171773 4.2407301,5.8291228 4.4198551,5.8089478 4.5305743,5.7964838 4.6352343,5.7723708 4.652399,5.7552038 4.70685,5.7007518 4.74258,4.8694773 4.701492,4.6136714 4.6474097,4.2771399 4.6194867,2.8478146 4.6575666,2.3554118 4.6932686,1.8935567 4.6644589,1.771347 4.5025373,1.6975708 4.4610304,1.6786474 4.4289899,1.6689375 4.3960839,1.6691488 Z m -0.048576,0.3079915 c 0.024226,-0.00148 0.041398,0.020623 0.074414,0.065112 0.043677,0.058909 0.055967,0.1353954 0.03669,0.223759 -0.06343,0.2908641 -0.087732,1.2403199 -0.047542,1.8557006 0.040192,0.6152066 0.044813,0.7982468 0.029972,1.2407512 -0.00529,0.1580409 -0.021342,0.1901692 -0.095601,0.1901692 -0.05451,0 -0.1250218,-0.060392 -0.1808675,-0.1550292 C 4.1142576,5.3123193 3.9990399,5.1969439 3.9087751,5.1412882 3.7598072,5.0494393 3.6805822,4.9905843 3.5258528,4.8591349 3.4242645,4.772831 3.2943608,4.7145478 3.0380273,4.6400269 2.8199466,4.5765969 2.724409,4.5722904 2.4297956,4.6126383 c -0.3357973,0.04598 -0.5753477,0.01537 -0.5911783,-0.075964 -0.016283,-0.097946 -0.016415,-0.4673316 0,-0.4836914 0.010404,-0.010415 0.020613,-0.2556907 0.023254,-0.5451864 0.00375,-0.4227038 0.017017,-0.5237098 0.066663,-0.5131469 0.2573951,0.054663 0.7017884,0.08035 0.9451619,0.05426 C 3.1871009,3.0153406 3.2179268,2.9929776 3.7020694,2.4634156 3.8015134,2.3546446 3.9320772,2.241086 3.992491,2.2107179 4.052905,2.1803229 4.1596179,2.1098255 4.229169,2.0541383 4.292081,2.0037643 4.323285,1.9786263 4.3475079,1.9771403 Z"/><path style="fill:#000000;stroke-width:0.999996" d="m 5.3481461,3.6741793 c 0.038097,-0.014627 0.1450021,-0.014286 0.2376033,5.669e-4 0.1551443,0.025171 0.1707857,0.016497 0.1990809,-0.1105671 0.1148813,-0.51594 0.2291504,-0.5852634 0.2522639,-0.153041 0.014003,0.261862 0.016554,0.2659665 0.1975671,0.3202041 0.1008557,0.030217 0.2186738,0.054935 0.261811,0.054935 0.043143,0 0.078428,0.019275 0.078428,0.042859 0,0.061012 -0.1253355,0.1011335 -0.3159238,0.1011335 H 6.094909 v 0.3061217 c 0,0.3213208 -0.07141,0.4519967 -0.2165647,0.3962965 -0.05193,-0.019956 -0.064782,-0.064215 -0.04337,-0.1495431 0.016724,-0.06667 0.0017,-0.2183449 -0.033278,-0.3370473 L 5.7379684,3.9302699 h -0.229519 c -0.2100848,0 -0.2295189,-0.00975 -0.2295189,-0.1148643 0,-0.063172 0.031181,-0.1268151 0.069233,-0.1414248 z" id="path422"/></g></svg>